<svg width="20" height="21" viewBox="0 0 20 21" fill="none" xmlns="http://www.w3.org/2000/svg">
<path d="M10 0.273766C4.48615 0.273766 0 4.75991 0 10.2738C0 15.7876 4.48615 20.2738 10 20.2738C13.1745 20.2738 16.0078 18.7853 17.8379 16.474C17.8995 16.3968 17.9453 16.3082 17.9726 16.2133C17.9999 16.1185 18.0082 16.0191 17.9971 15.921C17.9859 15.8229 17.9555 15.7279 17.9075 15.6416C17.8596 15.5553 17.795 15.4793 17.7176 15.418C17.6402 15.3566 17.5515 15.3112 17.4565 15.2842C17.3615 15.2573 17.2621 15.2494 17.164 15.2609C17.066 15.2725 16.9712 15.3033 16.885 15.3516C16.7989 15.3999 16.7231 15.4647 16.6621 15.5423C15.1042 17.51 12.7065 18.7738 10 18.7738C5.29685 18.7738 1.5 14.9769 1.5 10.2738C1.5 5.57062 5.29685 1.77377 10 1.77377C12.7065 1.77377 15.1042 3.03757 16.6621 5.00521C16.7231 5.08285 16.7989 5.14767 16.885 5.19595C16.9712 5.24424 17.066 5.27505 17.164 5.2866C17.2621 5.29816 17.3615 5.29023 17.4565 5.26329C17.5515 5.23634 17.6402 5.1909 17.7176 5.12957C17.795 5.06825 17.8596 4.99225 17.9075 4.90592C17.9555 4.8196 17.9859 4.72466 17.9971 4.62655C18.0082 4.52843 17.9999 4.42908 17.9726 4.33419C17.9453 4.23929 17.8995 4.15073 17.8379 4.07357C16.0078 1.76221 13.1745 0.273766 10 0.273766ZM16.2422 6.51595C16.0929 6.51599 15.9471 6.56056 15.8233 6.64395C15.6995 6.72735 15.6034 6.84578 15.5473 6.9841C15.4912 7.12242 15.4776 7.27432 15.5083 7.42039C15.5391 7.56646 15.6127 7.70004 15.7197 7.80404L17.4385 9.52279L7.25098 9.514C7.1516 9.51247 7.05291 9.53071 6.96064 9.56765C6.86837 9.6046 6.78436 9.65951 6.7135 9.7292C6.64263 9.79889 6.58633 9.88197 6.54785 9.97361C6.50937 10.0652 6.48949 10.1636 6.48936 10.263C6.48923 10.3624 6.50886 10.4608 6.5471 10.5526C6.58534 10.6443 6.64143 10.7275 6.71211 10.7974C6.78279 10.8673 6.86665 10.9224 6.95882 10.9596C7.051 10.9968 7.14964 11.0153 7.24902 11.014L17.4404 11.0228L15.7197 12.7435C15.6477 12.8126 15.5903 12.8954 15.5507 12.987C15.5111 13.0786 15.4902 13.1771 15.4892 13.2769C15.4882 13.3767 15.5071 13.4757 15.5448 13.5681C15.5825 13.6604 15.6383 13.7444 15.7088 13.8149C15.7794 13.8855 15.8633 13.9413 15.9557 13.979C16.0481 14.0167 16.1471 14.0356 16.2468 14.0346C16.3466 14.0336 16.4452 14.0127 16.5368 13.9731C16.6284 13.9335 16.7112 13.876 16.7803 13.804L19.7803 10.804C19.9209 10.6634 19.9999 10.4726 19.9999 10.2738C19.9999 10.0749 19.9209 9.88415 19.7803 9.74349L16.7803 6.74349C16.7104 6.6715 16.6267 6.61427 16.5343 6.57518C16.4419 6.5361 16.3425 6.51596 16.2422 6.51595Z" fill="#666F8D"/>
</svg>
